<svg xmlns="http://www.w3.org/2000/svg" width="177.657" height="53.645" viewBox="0 0 177.657 53.645"><defs><style>.a{fill:#0f243f;}.b{fill:#e46500;}.c{fill:#fff;}</style></defs><g transform="translate(-48.13 -3)"><g transform="translate(111.121 3)"><path class="a" d="M267.179,56.319a23.775,23.775,0,0,0-21.311-38.791,22.934,22.934,0,0,0-30.782-8.2,22.928,22.928,0,0,0-37.381,8.806,22.931,22.931,0,0,0-13.691,38.184Z" transform="translate(-158 -3)"/></g><g transform="translate(48.13 23.806)"><path class="b" d="M51.237,46.644c.694-5.647,4.925-7.3,8.479-7.235,0,0,10.475.178,14.3.711l-.745,6.066h-12.4c-2.311,0-2.465,1.29-2.614,2.488l-.453,3.681,12.533.476-.74,6.014-12.642.413L55.411,71.893H48.13Z" transform="translate(-48.13 -39.34)"/><path class="b" d="M93.9,48.28h7.281l-2.9,23.564H91Zm.826-7.878a1.149,1.149,0,0,1,1.2-1.112h5.55c.665,0,.929.487.849,1.112l-.55,4.495a1.049,1.049,0,0,1-1.112,1.021h-5.55a.865.865,0,0,1-.94-1.021Z" transform="translate(-66.421 -39.29)"/><path class="b" d="M112.611,54.671h5.968l1.015,2.419c1.949-1.422,3.784-2.821,7.379-2.821,5.768,0,6.473,3.841,5.9,8.543L130.98,78.235h-7.287L125.6,62.681c.264-2.133-.453-2.8-1.754-2.8a6.342,6.342,0,0,0-4.833,1.863l-2.024,16.489H109.71Z" transform="translate(-74.405 -45.682)"/></g><g transform="translate(123.744 23.519)"><path class="c" d="M193.526,38.79c5.372,0,7.809.4,11.295,1.611l-.7,5.682a82.7,82.7,0,0,0-9.414-.677c-4.185,0-5.911.5-7.075,9.987-.894,7.281-.172,9.9,4.667,9.9,4.661,0,9.511-.378,9.511-.378l-.7,5.682C198.147,71.6,194.948,72,189.455,71.9c-8.2-.1-10.389-6.026-9.093-16.6C181.646,44.913,184.691,38.79,193.526,38.79Z" transform="translate(-180.016 -38.79)"/><path class="c" d="M226.025,39.41h14.345c5.384,0,9.041,2.362,8.072,10.263s-4.094,8.944-6.186,9.655l4.357,12.567h-8.244L235,59.958l-4.139-.619L229.315,71.9H222.04Zm11.753,14.333c2.207,0,2.947-.866,3.342-4.071.361-2.918-.4-3.939-2.356-3.939h-6.2l-.986,8.009Z" transform="translate(-197.946 -39.055)"/><path class="c" d="M275.671,39.41H285.79l1.72,20.439,6.805-20.439h10.108l-.74,32.485H296.5l.281-19.917-6.559,19.917h-8.233l-1.84-19.917-4.42,19.917H268.55Z" transform="translate(-217.791 -39.055)"/></g></g></svg>