<svg xmlns="http://www.w3.org/2000/svg" width="40.335" height="40.335" viewBox="0 0 40.335 40.335"><defs><style>.a{fill:#fff;}</style></defs><path class="a" d="M35.293,40.335H5.042A5.044,5.044,0,0,1,0,35.293V5.042A5.044,5.044,0,0,1,5.042,0H35.293a5.044,5.044,0,0,1,5.042,5.042V35.293A5.044,5.044,0,0,1,35.293,40.335Zm-19.8-9.922A14.617,14.617,0,0,0,30.2,15.7c0-.222,0-.444-.01-.666a10.534,10.534,0,0,0,2.581-2.682,10.48,10.48,0,0,1-2.975.817,5.2,5.2,0,0,0,2.279-2.864,10.285,10.285,0,0,1-3.287,1.25A5.172,5.172,0,0,0,19.845,15.1a5.715,5.715,0,0,0,.131,1.18,14.683,14.683,0,0,1-10.659-5.4,5.192,5.192,0,0,0,1.6,6.907,5.23,5.23,0,0,1-2.339-.645V17.2a5.182,5.182,0,0,0,4.144,5.072,5.2,5.2,0,0,1-2.329.091,5.171,5.171,0,0,0,4.83,3.59A10.371,10.371,0,0,1,8.8,28.174a9.951,9.951,0,0,1-1.23-.071,14.708,14.708,0,0,0,7.916,2.309"/></svg>