<svg xmlns="http://www.w3.org/2000/svg" xmlns:xlink="http://www.w3.org/1999/xlink" width="200" height="760.001" viewBox="0 0 200 760.001">
  <defs>
    <clipPath id="clip-path">
      <rect id="Rectangle_125" data-name="Rectangle 125" width="200" height="126" fill="#fff" stroke="#707070" stroke-width="1"/>
    </clipPath>
    <clipPath id="clip-path-2">
      <rect id="Rectangle_124" data-name="Rectangle 124" width="200" height="106" fill="#eff3f6" stroke="#707070" stroke-width="1"/>
    </clipPath>
  </defs>
  <g id="Group_9571" data-name="Group 9571" transform="translate(-205 8518)">
    <g id="Group_9466" data-name="Group 9466" transform="translate(205 -8518)">
      <g id="Side_Bar" data-name="Side Bar">
        <path id="Rectangle_120" data-name="Rectangle 120" d="M0,0H150a50,50,0,0,1,50,50V710a50,50,0,0,1-50,50H0a0,0,0,0,1,0,0V0A0,0,0,0,1,0,0Z" fill="#0f243f"/>
      </g>
      <g id="Group_264" data-name="Group 264" transform="translate(0 634)" opacity="0.15">
        <g id="Mask_Group_3" data-name="Mask Group 3" transform="translate(0 0)" clip-path="url(#clip-path)">
          <path id="wave_1_" data-name="wave (1)" d="M0,29.492l10.364,3.347c10.364,3.222,31.092,10.1,51.82,21.678s41.456,28.465,62.185,21.678C145.1,69.532,165.826,39.5,186.554,34.5s41.456,15.015,62.185,15.015S269.561,8.468,300.322-5.682s48.6,5.537,66.443,36.913,39.071,34.89,57.83,31.991,46.946-39.228,67.674-42.45c20.728-3.347,46.664,48.76,67.392,48.76s41.456-10.01,51.821-15.015l10.364-5v60.059H0Z" transform="translate(-274.001 16.153)" fill="#fff" opacity="0.5"/>
        </g>
        <g id="Mask_Group_2" data-name="Mask Group 2" transform="translate(0 20)" clip-path="url(#clip-path-2)">
          <path id="wave_2_" data-name="wave (2)" d="M0,56.532,10.311,58.19c10.311,1.783,30.932,4.911,51.554,5a199.315,199.315,0,0,0,61.864-10.01c20.621-6.663,41.243-16.673,61.864-23.335,20.621-6.788,41.243-9.916,61.864,3.316C268.079,46.522,288.7,76.551,309.321,84.9c20.621,8.227,41.243-4.911,61.864-5,20.621.094,41.243,13.232,61.864,16.673S474.293,93.13,494.914,84.9c20.621-8.352,41.243-18.362,61.864-28.372l51.554-25.025,10.311-5v90.089H0Z" transform="translate(-83.452 -11.767)" fill="#eff3f6" opacity="0.5"/>
        </g>
      </g>
    </g>
    <path id="Subtraction_1" data-name="Subtraction 1" d="M50,50H.009A49.654,49.654,0,0,0,35.34,35.339,49.664,49.664,0,0,0,50,0V50Z" transform="translate(355 -7808)" fill="#eff3f6"/>
    <path id="Subtraction_2" data-name="Subtraction 2" d="M49.989,49.552A50.144,50.144,0,0,0-.008,0h50v49.55Z" transform="translate(355.009 -8518)" fill="#fff"/>
  </g>
</svg>
